# xmcd
#
# Track frame offsets: 
#        150
#        12904
#        26395
#        39164
#        62376
#        76629
#        87726
#        107003
#        133929
#        155986
#        168569
#        186482
#        206510
#        234428
#        254078
#        267125
#        295399
#        313482
#
# Disc length: 4358 seconds
#
# Revision: 2
# Processed by: cddbd v1.5.2PL0 Copyright (c) Steve Scherf et al.
# Submitted via: ExactAudioCopy v0.99pb5
#
DISCID=03110412
DTITLE=Louie Ramirez - Latin Soul, Jazz and Boogaloo
DYEAR=2005
DGENRE=Salsa
TTITLE0=Yaoco
TTITLE1=Its not what you say
TTITLE2=chin chon chow
TTITLE3=luisito mozambique
TTITLE4=times are changing
TTITLE5=cookin with a&j
TTITLE6=azucar en nueva york
TTITLE7=barrion nuevo
TTITLE8=the oracle
TTITLE9=violents guaguanco
TTITLE10=i dig rythm
TTITLE11=la flauta
TTITLE12=rush hour in hong kong
TTITLE13=descarga a&j
TTITLE14=don maceo
TTITLE15=vitamina
TTITLE16=fat papas descarga
TTITLE17=sids groove
EXTD=
EXTT0=
EXTT1=
EXTT2=
EXTT3=
EXTT4=
EXTT5=
EXTT6=
EXTT7=
EXTT8=
EXTT9=
EXTT10=
EXTT11=
EXTT12=
EXTT13=
EXTT14=
EXTT15=
EXTT16=
EXTT17=
PLAYORDER=
